<svg width="3" height="3" fill="none" xmlns="http://www.w3.org/2000/svg"><path d="M2.75 0H.25A.25.25 0 000 .251v1.757a.25.25 0 00.25.251h2.5A.25.25 0 003 2.01V.25A.25.25 0 002.75 0zM.25.126h2.5c.01 0 .017.003.026.005-.216.199-.934.858-1.185 1.085a.138.138 0 01-.091.04.138.138 0 01-.09-.04C1.157.99.44.33.223.131.233.129.241.126.25.126zM.125 2.008V.251c0-.012.004-.023.007-.035.166.153.666.613.991.91C.8 1.403.3 1.88.132 2.04c-.003-.01-.007-.021-.007-.033zm2.625.126H.25c-.01 0-.019-.004-.028-.006.172-.165.676-.645.994-.918l.11.1a.258.258 0 00.174.07.258.258 0 00.174-.07l.11-.1c.318.273.822.753.994.918-.01.002-.018.006-.028.006zm.125-.126c0 .012-.004.022-.007.033a32.03 32.03 0 00-.991-.916c.325-.296.825-.756.991-.909.003.012.007.023.007.035v1.757z" fill="#fff"/></svg>