<svg width="93" height="111" fill="none" xmlns="http://www.w3.org/2000/svg"><path d="M52.202 111h-14.3c-2.39 0-4.333-2.083-4.333-4.644v-34.58h-8.343c-2.388 0-4.331-2.084-4.331-4.645V52.313c0-2.56 1.943-4.644 4.331-4.644h8.343v-7.42c0-7.357 2.155-13.617 6.232-18.1 4.094-4.505 9.816-6.886 16.548-6.886l10.906.02c2.384.004 4.324 2.087 4.324 4.643v13.758c0 2.561-1.942 4.644-4.33 4.644l-7.343.003c-2.24 0-2.81.481-2.932.629-.201.245-.44.936-.44 2.846v5.863h10.163c.765 0 1.506.202 2.143.583 1.374.823 2.229 2.38 2.229 4.062l-.006 14.818c0 2.56-1.943 4.643-4.332 4.643H56.534v34.581c0 2.561-1.944 4.644-4.332 4.644zm-13.397-5.612h12.493V69.263c0-1.71 1.298-3.1 2.892-3.1h11.638l.005-12.881H54.19c-1.595 0-2.892-1.39-2.892-3.1v-8.376c0-2.192.208-4.686 1.752-6.56 1.865-2.266 4.805-2.527 6.854-2.527l6.44-.003V20.893l-10-.017c-10.817 0-17.54 7.424-17.54 19.373v9.932c0 1.71-1.297 3.101-2.89 3.101H26.13v12.88h9.783c1.594 0 2.892 1.39 2.892 3.1v36.126z" fill="#1A2975"/><path d="M4 111V7a3 3 0 013-3h78.474a3 3 0 013 3v104" stroke="#1A2975" stroke-width="8"/></svg>