<svg width="97" height="112" fill="none" xmlns="http://www.w3.org/2000/svg"><path d="M81.575 75.162V39.636c0-3.785-3.096-6.881-6.88-6.881L48.98 53.539 30.736 38.791a6.895 6.895 0 00-.054.845v9.801l18.3 14.742L73.247 44.63v36.7h1.483c3.544 0 6.484-2.714 6.844-6.166z" fill="#D50707"/><path d="M74.731 31.367H23.27c-4.56 0-8.269 3.71-8.269 8.269v34.812c0 4.56 3.71 8.269 8.269 8.269h51.46c4.56 0 8.269-3.71 8.269-8.269V39.636c0-4.56-3.71-8.269-8.269-8.269zm-3.962 2.776L48.981 51.755 27.193 34.143h43.576zM71.86 79.94H26.102V47.53l22.009 17.73a1.387 1.387 0 001.74 0l22.01-17.73v32.41zm8.364-5.493a5.5 5.5 0 01-5.493 5.493h-.095V44.63a1.388 1.388 0 00-2.258-1.081L48.98 62.397 25.585 43.55a1.388 1.388 0 00-2.259 1.08v35.31h-.057a5.499 5.499 0 01-5.493-5.492V39.636a5.499 5.499 0 015.028-5.472l25.305 20.455a1.387 1.387 0 001.744 0L75.162 34.16a5.5 5.5 0 015.062 5.475v34.812z" fill="#000"/><path d="M67.929 57.986c.306 0 .615-.1.872-.309l.483-.39a1.388 1.388 0 00-1.746-2.158l-.483.39a1.387 1.387 0 00.874 2.467zm-13.412 10.75c.306 0 .616-.1.872-.308l9.923-7.926a1.388 1.388 0 00-1.747-2.157l-9.922 7.925a1.387 1.387 0 00.874 2.466z" fill="#000"/><path d="M4.983 111L4.028 7.028a3 3 0 013-3.028H90a3 3 0 013 3v104" stroke="#D50707" stroke-width="8"/></svg>