<svg width="146" height="97" fill="none" xmlns="http://www.w3.org/2000/svg"><g filter="url(#filter0_d)"><path fill="#F20E0B" d="M46 23.799h7v5h-7z"/><path d="M61.504 27.831l-8.954 3.565-.454-1.788 9.408-1.777z" fill="#6E7173"/><path d="M49.5 29.799v40" stroke="#707072" stroke-width="7"/><path d="M46 69.799v-11l7 11h-7z" fill="#F20E0B" stroke="#F20E0B" stroke-width=".1"/><path d="M60 34.799h8v9l4.5 7 4.5-7v-9h10v11.5l-14.5 23-14.5-23v-11.5h2z" fill="#707072"/><path d="M60 34.799h8m-8 0l1.5 15m-1.5-15l-1 8m1-8l-2 9m10-9v9l4.5 7 4.5-7v-9m-9 0H58m19 0h8m-8 0h10m-2 0v9m0-9l2 9m-2 0l-1 6m1-6l2 2.5m-2-2.5l2-9m-3 15l-11.5 19.5m11.5-19.5l3-6m-14.5 25.5l-11-19.5m11 19.5l14.5-23m-14.5 23l-14.5-23m3.5 3.5l-3.5-15m29 11.5v-2.5m0 0v-9m-29 11.5l1-3.5m-1 3.5v-2.5m1-1l-1-8m0 9v-9" stroke="#707072" stroke-width=".1"/><path d="M122 34.799H91v34h31V49.703h-11.141v9.315H99.455V43.54H122V34.8z" fill="#707072" stroke="#707072" stroke-width=".1"/><path d="M6.289 88.799H4.09V78.135h2.2v10.664zm10.715 0h-2.197l-4.278-7.017V88.8H8.332V78.135h2.197l4.285 7.03v-7.03h2.19v10.664zM27.36 87.45c-.395.474-.954.842-1.677 1.106-.723.259-1.523.388-2.402.388-.923 0-1.734-.2-2.432-.6-.693-.406-1.23-.992-1.611-1.758-.376-.767-.57-1.668-.579-2.703v-.725c0-1.064.178-1.985.535-2.761.361-.781.879-1.377 1.553-1.787.678-.415 1.472-.623 2.38-.623 1.265 0 2.253.303 2.966.908.713.6 1.136 1.477 1.267 2.63h-2.138c-.098-.61-.315-1.057-.652-1.34-.332-.284-.791-.425-1.377-.425-.747 0-1.316.28-1.707.842-.39.561-.588 1.396-.593 2.505v.68c0 1.12.212 1.964.637 2.535.425.571 1.048.857 1.868.857.825 0 1.413-.176 1.765-.527v-1.839h-2v-1.618h4.197v4.255zm74.063 0c-.396.474-.955.842-1.677 1.106-.723.259-1.524.388-2.403.388-.923 0-1.733-.2-2.431-.6-.694-.406-1.23-.992-1.612-1.758-.376-.767-.569-1.668-.578-2.703v-.725c0-1.064.178-1.985.534-2.761.362-.781.88-1.377 1.553-1.787.679-.415 1.472-.623 2.38-.623 1.265 0 2.254.303 2.967.908.713.6 1.135 1.477 1.267 2.63h-2.139c-.098-.61-.315-1.057-.652-1.34-.332-.284-.79-.425-1.377-.425-.747 0-1.316.28-1.706.842-.39.561-.589 1.396-.593 2.505v.68c0 1.12.212 1.964.637 2.535.425.571 1.047.857 1.867.857.826 0 1.414-.176 1.766-.527v-1.839h-2v-1.618h4.197v4.255zm5.735-2.556h-1.751v3.904h-2.197V78.135h3.962c1.26 0 2.232.28 2.915.842.684.561 1.026 1.355 1.026 2.38 0 .728-.159 1.336-.476 1.824-.313.483-.789.87-1.429 1.157l2.308 4.358v.103h-2.359l-1.999-3.904zm-1.751-1.78h1.773c.551 0 .979-.14 1.281-.417.303-.284.455-.672.455-1.165 0-.503-.145-.898-.433-1.186-.283-.289-.72-.433-1.311-.433h-1.765v3.201zm16.143.593c0 1.05-.186 1.97-.557 2.762-.371.79-.903 1.4-1.597 1.83-.688.43-1.479.645-2.373.645-.883 0-1.672-.212-2.365-.637-.694-.425-1.231-1.03-1.612-1.817-.38-.79-.573-1.699-.578-2.724v-.527c0-1.05.188-1.973.564-2.769.381-.8.915-1.413 1.604-1.838.693-.43 1.484-.645 2.373-.645.888 0 1.677.215 2.366.645.693.425 1.228 1.037 1.604 1.838.38.796.571 1.716.571 2.761v.476zm-2.227-.483c0-1.118-.2-1.968-.6-2.549-.401-.58-.972-.871-1.714-.871-.738 0-1.306.288-1.707.864-.4.571-.603 1.41-.608 2.52v.52c0 1.088.201 1.933.601 2.534.4.6.976.9 1.728.9.738 0 1.304-.288 1.7-.864.395-.58.595-1.426.6-2.534v-.52zm11.895-5.09v7.023c0 1.168-.366 2.09-1.099 2.77-.727.678-1.723 1.017-2.988 1.017-1.245 0-2.234-.33-2.966-.989-.733-.659-1.106-1.565-1.121-2.717v-7.104h2.197v7.038c0 .698.166 1.209.498 1.53.337.318.801.477 1.392.477 1.235 0 1.863-.65 1.882-1.948v-7.097h2.205zm3.999 6.906v3.76h-2.197V78.135h4.16c.8 0 1.504.146 2.109.44.61.292 1.079.71 1.406 1.251.327.538.491 1.15.491 1.839 0 1.045-.359 1.87-1.077 2.475-.713.601-1.701.901-2.966.901h-1.926zm0-1.78h1.963c.581 0 1.023-.136 1.325-.41.308-.273.462-.664.462-1.171 0-.523-.154-.945-.462-1.268-.307-.322-.732-.488-1.274-.498h-2.014v3.348z" fill="#F20E0B"/><path d="M36.757 86.477l2.71-8.342h2.036l-3.837 10.664H35.87l-3.823-10.664h2.029l2.68 8.342zm12.188-2.44h-4.38v3.282h5.12v1.48h-6.973V78.135h6.921v1.494h-5.068v2.944h4.38v1.465zm10.386 1.29c-.108 1.138-.528 2.026-1.26 2.666-.733.635-1.707.952-2.923.952-.85 0-1.599-.2-2.248-.6-.645-.406-1.143-.98-1.494-1.722-.352-.742-.535-1.604-.55-2.585v-.996c0-1.006.179-1.892.535-2.659.357-.766.867-1.357 1.53-1.772.67-.415 1.441-.623 2.315-.623 1.177 0 2.124.32 2.842.96.718.64 1.135 1.543 1.253 2.71h-1.846c-.088-.767-.313-1.319-.674-1.656-.356-.341-.881-.512-1.575-.512-.805 0-1.425.295-1.86.886-.43.586-.65 1.448-.66 2.585v.945c0 1.152.206 2.031.616 2.637.415.605 1.02.908 1.816.908.728 0 1.275-.164 1.641-.49.366-.328.598-.872.696-1.634h1.846zm9.147-5.698h-3.325v9.17h-1.838v-9.17h-3.296v-1.494h8.46v1.494zm9.712 4.116c0 1.045-.18 1.963-.542 2.754-.36.786-.879 1.392-1.552 1.816-.67.42-1.44.63-2.315.63-.864 0-1.636-.21-2.314-.63-.674-.424-1.197-1.028-1.568-1.809-.366-.781-.551-1.682-.556-2.702v-.601c0-1.04.183-1.958.55-2.754.37-.796.89-1.404 1.56-1.824.673-.424 1.444-.637 2.314-.637.869 0 1.638.21 2.307.63.674.415 1.194 1.016 1.56 1.802.366.781.552 1.692.556 2.732v.593zm-1.853-.557c0-1.181-.224-2.087-.673-2.717-.445-.63-1.077-.945-1.897-.945-.801 0-1.429.315-1.883.945-.449.625-.678 1.511-.688 2.659v.615c0 1.172.227 2.078.681 2.717.459.64 1.094.96 1.904.96.82 0 1.45-.313 1.89-.938.444-.625.666-1.538.666-2.739v-.557zm7.618 1.502h-2.066v4.109h-1.853V78.135h3.75c1.23 0 2.18.275 2.85.827.668.552 1.003 1.35 1.003 2.395 0 .713-.174 1.311-.52 1.795-.342.478-.82.847-1.436 1.106l2.395 4.446v.095h-1.985l-2.138-4.11zm-2.066-1.487h1.904c.625 0 1.114-.156 1.465-.469.352-.317.528-.75.528-1.296 0-.572-.164-1.013-.491-1.326-.322-.312-.806-.474-1.45-.483h-1.956v3.574z" fill="#707072"/><path d="M31 69V23h-1L51 3l20 20" stroke="#F20E0B" stroke-width="3"/></g><defs><filter id="filter0_d" x="-1" y=".904" width="150" height="103.894" filterUnits="userSpaceOnUse" color-interpolation-filters="sRGB"><feFlood flood-opacity="0" result="BackgroundImageFix"/><feColorMatrix in="SourceAlpha" values="0 0 0 0 0 0 0 0 0 0 0 0 0 0 0 0 0 0 127 0"/><feOffset dy="4"/><feGaussianBlur stdDeviation="2"/><feColorMatrix values="0 0 0 0 0 0 0 0 0 0 0 0 0 0 0 0 0 0 0.25 0"/><feBlend in2="BackgroundImageFix" result="effect1_dropShadow"/><feBlend in="SourceGraphic" in2="effect1_dropShadow" result="shape"/></filter></defs></svg>