<svg width="91" height="82" viewBox="0 0 95 85" fill="none" xmlns="http://www.w3.org/2000/svg"><path d="M29 81H15.5c-7.732 0-14-6.268-14-14V55.5c0-7.732 6.268-14 14-14H29c7.732 0 14 6.268 14 14V67c0 7.732-6.268 14-14 14z" fill="#FF0617" stroke="#FF0617"/><path d="M34 1C23.833 1 2.7 12 1.5 56l13-14c-.71-9.08 2.195-26.857 19.5-26.857V1zm42.5 80H63c-7.732 0-14-6.268-14-14V55.5c0-7.732 6.268-14 14-14h13.5c7.732 0 14 6.268 14 14V67c0 7.732-6.268 14-14 14z" fill="#FF0617" stroke="#FF0617"/><path d="M81.5 1C71.333 1 50.2 12 49 56l13-14c-.71-9.08 2.195-26.857 19.5-26.857V1z" fill="#FF0617" stroke="#FF0617"/></svg>