<svg width="95" height="90" fill="none" xmlns="http://www.w3.org/2000/svg"><path fill="#FF0515" d="M0 0h95v90H0z"/><g fill="#fff" clip-path="url(#clip0)"><path d="M77.795 63.3l-6.874-4.583-6.11-4.072a2.707 2.707 0 00-3.634.59l-3.781 4.86a2.693 2.693 0 01-3.438.713c-2.565-1.427-5.599-2.77-12.293-9.473-6.694-6.702-8.046-9.727-9.473-12.293a2.693 2.693 0 01.713-3.437l4.86-3.781a2.707 2.707 0 00.59-3.635l-3.947-5.922-4.707-7.061a2.707 2.707 0 00-3.645-.82l-5.429 3.257a6.633 6.633 0 00-3.012 3.898c-1.485 5.413-1.784 17.355 17.353 36.492C54.106 77.171 66.046 76.87 71.46 75.385a6.633 6.633 0 003.898-3.012l3.258-5.429a2.706 2.706 0 00-.82-3.644zm-25.52-39.68c10.032.012 18.161 8.141 18.173 18.173a1.07 1.07 0 002.138 0c-.013-11.212-9.099-20.298-20.31-20.31a1.069 1.069 0 000 2.138z"/><path d="M52.275 30.034c6.491.008 11.751 5.268 11.759 11.758a1.069 1.069 0 102.138 0c-.01-7.67-6.225-13.887-13.897-13.896a1.07 1.07 0 000 2.138z"/><path d="M52.275 36.448a5.351 5.351 0 015.345 5.344 1.069 1.069 0 102.138 0 7.491 7.491 0 00-7.483-7.482 1.07 1.07 0 000 2.138z"/></g><defs><clipPath id="clip0"><path fill="#fff" transform="translate(17 14)" d="M0 0h62v62H0z"/></clipPath></defs></svg>