<svg xmlns="http://www.w3.org/2000/svg" viewBox="0 0 1440 320"><path fill="#2b2e4a" fill-opacity=".2" d="M0 64l7.3 10.7C14.5 85 29 107 44 133.3 58.2 160 73 192 87 192c14.8 0 29-32 44-21.3 14.5 10.3 29 64.3 44 48C189.1 203 204 117 218 80c14.7-37 29-27 44-26.7C276.4 53 291 43 305 80c15 37 30 123 44 160 14.6 37 29 27 44-5.3 14.3-31.7 29-85.7 43-96 14.9-10.7 29 21.3 44 53.3 14.5 32 29 64 44 80 14.2 16 29 16 43-5.3 14.8-21.7 29-63.7 44-85.4 14.5-21.3 29-21.3 44-16 14.1 5.7 29 15.7 43-5.3 14.7-21 29-75 44-96 14.4-21 29-11 43 16 15 27 30 69 44 64 14.6-5 29-59 44-42.7 14.3 15.7 29 101.7 43 117.4 14.9 16.3 29-37.7 44-53.4 14.5-16.3 29 5.7 44 0 14.2-5.3 29-37.3 43-16 14.8 21.7 29 95.7 44 106.7 14.5 11 29-43 44-96 14.1-53 29-107 43-112 14.7-5 29 37 44 74.7 14.4 37.3 29 69.3 43 80 15 10.3 30 .3 44-21.4 14.6-21.3 29-53.3 44-69.3 14.3-16 29-16 43 16 14.9 32 29 96 37 128l7 32v32H0z"/></svg>