<svg width="3" height="3" viewBox="0 0 3 3" fill="none" xmlns="http://www.w3.org/2000/svg">
<path d="M2.9152 2.20169L2.49654 1.78304C2.34702 1.63352 2.09283 1.69333 2.03302 1.8877C1.98817 2.02228 1.83864 2.09704 1.70408 2.06713C1.40503 1.99237 1.00133 1.60361 0.926567 1.28962C0.881711 1.15504 0.971423 1.00552 1.10599 0.960672C1.30037 0.900863 1.36018 0.646678 1.21066 0.497157L0.791998 0.0784985C0.672382 -0.0261662 0.492956 -0.0261662 0.388292 0.0784985L0.104202 0.362588C-0.179888 0.66163 0.134106 1.45409 0.836855 2.15684C1.5396 2.85959 2.33206 3.18854 2.63111 2.88949L2.9152 2.6054C3.01987 2.48578 3.01987 2.30636 2.9152 2.20169Z" fill="white"/>
</svg>
