<svg width="3" height="3" viewBox="0 0 3 3" fill="none" xmlns="http://www.w3.org/2000/svg">
<path d="M2.75 0H0.250002C0.112119 0 0 0.112586 0 0.251044V2.00834C0 2.14679 0.112119 2.25938 0.250002 2.25938H2.75C2.88788 2.25938 3 2.14679 3 2.00833V0.251044C3 0.112586 2.88788 0 2.75 0ZM0.250002 0.125519H2.75C2.75921 0.125519 2.76733 0.12889 2.77597 0.130797C2.55953 0.32971 1.84185 0.989 1.5907 1.21623C1.57105 1.234 1.53938 1.25521 1.50001 1.25521C1.46064 1.25521 1.42896 1.234 1.40924 1.21617C1.15812 0.988977 0.440396 0.329651 0.223992 0.130808C0.232652 0.128902 0.240785 0.125519 0.250002 0.125519ZM0.124998 2.00833V0.251044C0.124998 0.238747 0.128689 0.227591 0.131994 0.216353C0.29765 0.368602 0.798416 0.82862 1.12312 1.12512C0.799471 1.40429 0.298576 1.88116 0.131602 2.04105C0.128654 2.03037 0.124998 2.01993 0.124998 2.00833ZM2.75 2.13386H0.250002C0.240018 2.13386 0.231141 2.13036 0.221818 2.12813C0.394359 1.96296 0.898441 1.48334 1.2164 1.2102C1.25785 1.24796 1.29571 1.28238 1.32556 1.30939C1.37708 1.3561 1.43738 1.38073 1.5 1.38073C1.56262 1.38073 1.62292 1.35609 1.67438 1.30945C1.70423 1.28243 1.74213 1.24798 1.7836 1.2102C2.10158 1.48331 2.60559 1.96289 2.77818 2.12813C2.76886 2.13036 2.75999 2.13386 2.75 2.13386ZM2.875 2.00833C2.875 2.01993 2.87135 2.03037 2.8684 2.04105C2.70137 1.88108 2.20053 1.40426 1.87689 1.12513C2.2016 0.828626 2.70229 0.368649 2.86801 0.216341C2.87131 0.227579 2.875 0.238741 2.875 0.251038V2.00833V2.00833Z" fill="white"/>
</svg>
