<svg width="93" height="111" viewBox="0 0 93 111" fill="none" xmlns="http://www.w3.org/2000/svg">
<g id="facebook-icon">
<path id="Vector" d="M52.2016 111H37.9012C35.5126 111 33.5695 108.917 33.5695 106.356V71.7753H25.2264C22.8378 71.7753 20.8947 69.6915 20.8947 67.1314V52.3134C20.8947 49.7526 22.8378 47.6695 25.2264 47.6695H33.5695V40.2492C33.5695 32.8917 35.7244 26.6321 39.8006 22.1481C43.8952 17.6436 49.6174 15.2632 56.3486 15.2632L67.2548 15.2822C69.6393 15.2866 71.5789 17.3697 71.5789 19.9261V33.6842C71.5789 36.2451 69.6366 38.3282 67.2486 38.3282L59.9056 38.3311C57.6662 38.3311 57.096 38.8125 56.974 38.96C56.773 39.2047 56.5339 39.8964 56.5339 41.8064V47.6687H66.6968C67.4619 47.6687 68.2031 47.8711 68.8401 48.2523C70.2143 49.0755 71.0686 50.632 71.0686 52.3142L71.0632 67.1321C71.0632 69.6915 69.1201 71.7746 66.7315 71.7746H56.5339V106.356C56.5339 108.917 54.5902 111 52.2016 111ZM38.8046 105.388H51.2982V69.2627C51.2982 67.5528 52.596 66.1621 54.1903 66.1621H65.8281L65.8329 53.282H54.1896C52.5953 53.282 51.2982 51.8913 51.2982 50.1814V41.8064C51.2982 39.6137 51.506 37.1201 53.0498 35.2459C54.9151 32.9801 57.8549 32.7186 59.9043 32.7186L66.3439 32.7157V20.8932L56.3445 20.8757C45.5269 20.8757 38.8046 28.2996 38.8046 40.2492V50.1814C38.8046 51.8905 37.5074 53.282 35.9132 53.282H26.1298V66.1621H35.9132C37.5074 66.1621 38.8046 67.5528 38.8046 69.2627V105.388Z" fill="#1A2975"/>
<path id="icon-frame" d="M4 111V7C4 5.34314 5.34315 4 7 4H85.4737C87.1305 4 88.4737 5.34315 88.4737 7V111" stroke="#1A2975" stroke-width="8"/>
</g>
</svg>
