<svg width="97" height="112" viewBox="0 0 97 112" fill="none" xmlns="http://www.w3.org/2000/svg">
<g id="gmail-icon">
<g id="gmail 1">
<path id="Vector" d="M81.5749 75.1625V39.6357C81.5749 35.8506 78.4787 32.7549 74.6941 32.7549L48.9814 53.539L30.7357 38.7906C30.7015 39.0681 30.6818 39.3493 30.6818 39.6357V49.4374L48.9814 64.1785L73.2482 44.6302V81.329H74.7314C78.2753 81.329 81.2148 78.6146 81.5749 75.1625V75.1625Z" fill="#D50707"/>
<path id="Vector_2" d="M74.7314 31.3672H23.2686C18.7094 31.3672 15 35.0766 15 39.6358V74.4482C15 79.0074 18.7094 82.7169 23.2686 82.7169H74.7314C79.2906 82.7169 83 79.0074 83 74.4482V39.6358C83 35.0766 79.2906 31.3672 74.7314 31.3672ZM70.7693 34.1428L48.9813 51.7549L27.1928 34.1428H70.7693ZM71.8603 79.9413H26.1023V47.5298L48.1108 65.2593C48.6187 65.6686 49.344 65.6686 49.8519 65.2593L71.8603 47.5298V79.9413ZM80.2244 74.4482C80.2244 77.477 77.7601 79.9413 74.7314 79.9413H74.6359V44.6303C74.6359 44.0959 74.3293 43.6093 73.8473 43.3784C73.3649 43.1476 72.7937 43.2145 72.3776 43.5496L48.9813 62.3965L25.5851 43.5496C25.1685 43.2145 24.5973 43.1476 24.1153 43.3784C23.6333 43.6088 23.3262 44.0959 23.3262 44.6303V79.9408H23.2686C20.2399 79.9413 17.7756 77.477 17.7756 74.4482V39.6358C17.7756 36.7632 19.9919 34.4006 22.8038 34.164L48.1087 54.6187C48.3634 54.8242 48.6721 54.9269 48.9813 54.9269C49.2905 54.9269 49.5992 54.8242 49.8534 54.6187L75.162 34.1609C77.99 34.3819 80.2244 36.7518 80.2244 39.6358V74.4482Z" fill="black"/>
<path id="Vector_3" d="M67.9289 57.9862C68.2355 57.9862 68.5442 57.8851 68.801 57.677L69.284 57.2864C69.8796 56.8039 69.9714 55.9303 69.4894 55.3347C69.007 54.7386 68.1333 54.6467 67.5377 55.1292L67.0547 55.5199C66.4591 56.0018 66.3668 56.876 66.8493 57.4716C67.1237 57.8104 67.5242 57.9862 67.9289 57.9862V57.9862Z" fill="black"/>
<path id="Vector_4" d="M54.5169 68.7363C54.8235 68.7363 55.1327 68.6351 55.3895 68.4276L65.3116 60.5019C65.9072 60.02 65.999 59.1463 65.517 58.5502C65.0351 57.9546 64.1609 57.8623 63.5653 58.3448L53.6433 66.2699C53.0472 66.7524 52.9553 67.6261 53.4378 68.2217C53.7117 68.5604 54.1128 68.7363 54.5169 68.7363V68.7363Z" fill="black"/>
</g>
<path id="icon-frame" d="M4.98343 111L4.02783 7.02757C4.0125 5.36001 5.36007 4 7.0277 4H90C91.6569 4 93 5.34315 93 7V111" stroke="#D50707" stroke-width="8"/>
</g>
</svg>
