<svg width="85" height="109" viewBox="0 0 85 109" fill="none" xmlns="http://www.w3.org/2000/svg">
<g id="istagram-icon">
<g id="instagram 1" clip-path="url(#clip0)">
<path id="emm" d="M53.3108 30.4954H31.2313C21.0711 30.4954 12.8318 38.7347 12.8318 48.8949V70.9743C12.8318 81.1346 21.0711 89.3739 31.2313 89.3739H53.3108C63.471 89.3739 71.7103 81.1346 71.7103 70.9743V48.8949C71.7103 38.7347 63.471 30.4954 53.3108 30.4954ZM66.1904 70.9743C66.1904 78.0766 60.413 83.854 53.3108 83.854H31.2313C24.1291 83.854 18.3516 78.0766 18.3516 70.9743V48.8949C18.3516 41.7927 24.1291 36.0152 31.2313 36.0152H53.3108C60.413 36.0152 66.1904 41.7927 66.1904 48.8949V70.9743Z" fill="url(#paint0_linear)"/>
<path id="Vector" d="M42.271 45.215C34.1421 45.215 27.5514 51.8057 27.5514 59.9346C27.5514 68.0635 34.1421 74.6542 42.271 74.6542C50.3999 74.6542 56.9906 68.0635 56.9906 59.9346C56.9906 51.8057 50.3999 45.215 42.271 45.215ZM42.271 69.1344C37.2001 69.1344 33.0713 65.0055 33.0713 59.9346C33.0713 54.86 37.2001 50.7348 42.271 50.7348C47.3419 50.7348 51.4708 54.86 51.4708 59.9346C51.4708 65.0055 47.3419 69.1344 42.271 69.1344Z" fill="url(#paint1_linear)"/>
<path id="Vector_2" d="M58.0947 46.0724C59.1779 46.0724 60.0561 45.1943 60.0561 44.111C60.0561 43.0278 59.1779 42.1497 58.0947 42.1497C57.0114 42.1497 56.1333 43.0278 56.1333 44.111C56.1333 45.1943 57.0114 46.0724 58.0947 46.0724Z" fill="url(#paint2_linear)"/>
</g>
<path id="icon-frame" d="M4 109V7C4 5.34315 5.34315 4 7 4H77.5421C79.1989 4 80.5421 5.34315 80.5421 7V109" stroke="#1A6E9D" stroke-opacity="0.77" stroke-width="8"/>
</g>
<defs>
<linearGradient id="paint0_linear" x1="18.2216" y1="83.9845" x2="66.3205" y2="35.8848" gradientUnits="userSpaceOnUse">
<stop stop-color="#FFC107"/>
<stop offset="0.507" stop-color="#F44336"/>
<stop offset="0.99" stop-color="#9C27B0"/>
</linearGradient>
<linearGradient id="paint1_linear" x1="31.863" y1="70.3427" x2="52.6791" y2="49.5265" gradientUnits="userSpaceOnUse">
<stop stop-color="#FFC107"/>
<stop offset="0.507" stop-color="#F44336"/>
<stop offset="0.99" stop-color="#9C27B0"/>
</linearGradient>
<linearGradient id="paint2_linear" x1="56.7079" y1="45.4982" x2="59.4815" y2="42.7243" gradientUnits="userSpaceOnUse">
<stop stop-color="#FFC107"/>
<stop offset="0.507" stop-color="#F44336"/>
<stop offset="0.99" stop-color="#9C27B0"/>
</linearGradient>
<clipPath id="clip0">
<rect width="58.8785" height="58.8785" fill="white" transform="translate(12.8318 30.4954)"/>
</clipPath>
</defs>
</svg>
