<svg width="142" height="97" viewBox="0 0 142 97" fill="none" xmlns="http://www.w3.org/2000/svg">
<g id="ivg2">
<g id="IVG">
<rect id="Rectangle 2" x="43" y="23.7987" width="7" height="5" fill="#F20E0B"/>
<path id="Polygon 1" d="M58.5042 27.831L49.5501 31.3959L49.0956 29.608L58.5042 27.831Z" fill="#6E7173"/>
<path id="Line 4" d="M46.5 29.7987L46.5 69.7987" stroke="#707072" stroke-width="7"/>
<path id="Vector 1" d="M43 69.7987V58.7987L50 69.7987H43Z" fill="#F20E0B" stroke="#F20E0B" stroke-width="0.1"/>
<g id="Vector 3">
<path d="M57 34.7987H65V43.7987L69.5 50.7987L74 43.7987V34.7987H82H84V43.7987V46.2987L69.5 69.2987L55 46.2987V43.7987V34.7987H57Z" fill="#707072"/>
<path d="M57 34.7987H65M57 34.7987L58.5 49.7987M57 34.7987L56 42.7987M57 34.7987L55 43.7987M65 34.7987V43.7987L69.5 50.7987L74 43.7987V34.7987M65 34.7987H55M74 34.7987H82M74 34.7987H84M82 34.7987V43.7987M82 34.7987L84 43.7987M82 43.7987L81 49.7987M82 43.7987L84 46.2987M82 43.7987L84 34.7987M81 49.7987L69.5 69.2987M81 49.7987L84 43.7987M69.5 69.2987L58.5 49.7987M69.5 69.2987L84 46.2987M69.5 69.2987L55 46.2987M58.5 49.7987L55 34.7987M84 46.2987V43.7987M84 43.7987V34.7987M55 46.2987L56 42.7987M55 46.2987V43.7987M56 42.7987L55 34.7987M55 43.7987V34.7987" stroke="#707072" stroke-width="0.1"/>
</g>
<path id="Vector 4" d="M119 34.7987H88V68.7987H119V49.7028H107.859V59.0179H96.4545V43.5415H107.859H119V34.7987Z" fill="#707072" stroke="#707072" stroke-width="0.1"/>
</g>
<g id="ING VECTOR GROUP">
<path d="M3.28857 88.7987H1.09131V78.1346H3.28857V88.7987ZM14.0039 88.7987H11.8066L7.5293 81.7821V88.7987H5.33203V78.1346H7.5293L11.814 85.1659V78.1346H14.0039V88.7987ZM24.3604 87.451C23.9648 87.9247 23.4058 88.2933 22.6831 88.557C21.9604 88.8158 21.1597 88.9452 20.2808 88.9452C19.3579 88.9452 18.5474 88.745 17.8491 88.3446C17.1558 87.9393 16.6187 87.3534 16.2378 86.5868C15.8618 85.8202 15.6689 84.9193 15.6592 83.8841V83.159C15.6592 82.0946 15.8374 81.1742 16.1938 80.3978C16.5552 79.6165 17.0728 79.0208 17.7466 78.6107C18.4253 78.1956 19.2188 77.9881 20.127 77.9881C21.3916 77.9881 22.3804 78.2909 23.0933 78.8963C23.8062 79.4969 24.2285 80.3734 24.3604 81.5257H22.2217C22.124 80.9154 21.9067 80.4686 21.5698 80.1854C21.2378 79.9022 20.7788 79.7606 20.1929 79.7606C19.4458 79.7606 18.877 80.0414 18.4863 80.6029C18.0957 81.1644 17.8979 81.9994 17.8931 83.1078V83.7889C17.8931 84.9071 18.1055 85.7518 18.5303 86.3231C18.9551 86.8944 19.5776 87.18 20.3979 87.18C21.2231 87.18 21.8115 87.0042 22.1631 86.6527V84.8143H20.1636V83.1956H24.3604V87.451ZM98.4229 87.451C98.0273 87.9247 97.4683 88.2933 96.7456 88.557C96.0229 88.8158 95.2222 88.9452 94.3433 88.9452C93.4204 88.9452 92.6099 88.745 91.9116 88.3446C91.2183 87.9393 90.6812 87.3534 90.3003 86.5868C89.9243 85.8202 89.7314 84.9193 89.7217 83.8841V83.159C89.7217 82.0946 89.8999 81.1742 90.2563 80.3978C90.6177 79.6165 91.1353 79.0208 91.8091 78.6107C92.4878 78.1956 93.2812 77.9881 94.1895 77.9881C95.4541 77.9881 96.4429 78.2909 97.1558 78.8963C97.8687 79.4969 98.291 80.3734 98.4229 81.5257H96.2842C96.1865 80.9154 95.9692 80.4686 95.6323 80.1854C95.3003 79.9022 94.8413 79.7606 94.2554 79.7606C93.5083 79.7606 92.9395 80.0414 92.5488 80.6029C92.1582 81.1644 91.9604 81.9994 91.9556 83.1078V83.7889C91.9556 84.9071 92.168 85.7518 92.5928 86.3231C93.0176 86.8944 93.6401 87.18 94.4604 87.18C95.2856 87.18 95.874 87.0042 96.2256 86.6527V84.8143H94.2261V83.1956H98.4229V87.451ZM104.158 84.8949H102.407V88.7987H100.21V78.1346H104.172C105.432 78.1346 106.404 78.4154 107.087 78.9769C107.771 79.5384 108.113 80.3319 108.113 81.3573C108.113 82.0848 107.954 82.6927 107.637 83.181C107.324 83.6644 106.848 84.0501 106.208 84.3382L108.516 88.6961V88.7987H106.157L104.158 84.8949ZM102.407 83.1151H104.18C104.731 83.1151 105.159 82.9759 105.461 82.6976C105.764 82.4144 105.916 82.0262 105.916 81.5331C105.916 81.0301 105.771 80.6346 105.483 80.3465C105.2 80.0584 104.763 79.9144 104.172 79.9144H102.407V83.1151ZM118.55 83.7083C118.55 84.7581 118.364 85.6786 117.993 86.4696C117.622 87.2606 117.09 87.8709 116.396 88.3006C115.708 88.7303 114.917 88.9452 114.023 88.9452C113.14 88.9452 112.351 88.7328 111.658 88.308C110.964 87.8831 110.427 87.2777 110.046 86.4915C109.666 85.7005 109.473 84.7923 109.468 83.7669V83.2396C109.468 82.1898 109.656 81.2669 110.032 80.471C110.413 79.6703 110.947 79.0575 111.636 78.6327C112.329 78.203 113.12 77.9881 114.009 77.9881C114.897 77.9881 115.686 78.203 116.375 78.6327C117.068 79.0575 117.603 79.6703 117.979 80.471C118.359 81.2669 118.55 82.1873 118.55 83.2323V83.7083ZM116.323 83.2249C116.323 82.1068 116.123 81.2572 115.723 80.6761C115.322 80.0951 114.751 79.8045 114.009 79.8045C113.271 79.8045 112.703 80.0926 112.302 80.6688C111.902 81.2401 111.699 82.0799 111.694 83.1883V83.7083C111.694 84.7972 111.895 85.6419 112.295 86.2425C112.695 86.8431 113.271 87.1434 114.023 87.1434C114.761 87.1434 115.327 86.8553 115.723 86.2791C116.118 85.6981 116.318 84.8534 116.323 83.745V83.2249ZM128.218 78.1346V85.1585C128.218 86.3255 127.852 87.2484 127.119 87.9271C126.392 88.6058 125.396 88.9452 124.131 88.9452C122.886 88.9452 121.897 88.6156 121.165 87.9564C120.432 87.2972 120.059 86.3914 120.044 85.2391V78.1346H122.241V85.1732C122.241 85.8714 122.407 86.3817 122.739 86.7039C123.076 87.0213 123.54 87.18 124.131 87.18C125.366 87.18 125.994 86.5306 126.013 85.2318V78.1346H128.218ZM132.217 85.0414V88.7987H130.02V78.1346H134.18C134.98 78.1346 135.684 78.2811 136.289 78.5741C136.899 78.867 137.368 79.2845 137.695 79.8265C138.022 80.3636 138.186 80.9764 138.186 81.6649C138.186 82.7098 137.827 83.535 137.109 84.1405C136.396 84.7411 135.408 85.0414 134.143 85.0414H132.217ZM132.217 83.2616H134.18C134.761 83.2616 135.203 83.1248 135.505 82.8514C135.813 82.578 135.967 82.1873 135.967 81.6795C135.967 81.1571 135.813 80.7347 135.505 80.4124C135.198 80.0902 134.773 79.9242 134.231 79.9144H132.217V83.2616Z" fill="#F20E0B"/>
<path d="M33.7573 86.4769L36.4673 78.1346H38.5034L34.6655 88.7987H32.8711L29.0479 78.1346H31.0767L33.7573 86.4769ZM45.9448 84.0379H41.5649V87.3192H46.6846V88.7987H39.7119V78.1346H46.6333V79.6288H41.5649V82.5731H45.9448V84.0379ZM56.3306 85.327C56.2231 86.4647 55.8032 87.3534 55.0708 87.993C54.3384 88.6278 53.3643 88.9452 52.1484 88.9452C51.2988 88.9452 50.5493 88.745 49.8999 88.3446C49.2554 87.9393 48.7573 87.3656 48.4058 86.6234C48.0542 85.8812 47.8711 85.0194 47.8564 84.0379V83.0418C47.8564 82.036 48.0347 81.1497 48.3911 80.3831C48.7476 79.6165 49.2578 79.0257 49.9219 78.6107C50.5908 78.1956 51.3623 77.9881 52.2363 77.9881C53.4131 77.9881 54.3604 78.308 55.0781 78.9476C55.7959 79.5872 56.2134 80.4906 56.3306 81.6576H54.4849C54.397 80.891 54.1724 80.3392 53.811 80.0023C53.4546 79.6605 52.9297 79.4896 52.2363 79.4896C51.4307 79.4896 50.8105 79.785 50.376 80.3758C49.9463 80.9618 49.7266 81.8236 49.7168 82.9613V83.9061C49.7168 85.0584 49.9219 85.9373 50.332 86.5428C50.7471 87.1483 51.3525 87.451 52.1484 87.451C52.876 87.451 53.4229 87.2874 53.7891 86.9603C54.1553 86.6331 54.3872 86.0887 54.4849 85.327H56.3306ZM65.4785 79.6288H62.1533V88.7987H60.3149V79.6288H57.019V78.1346H65.4785V79.6288ZM75.1904 83.745C75.1904 84.7899 75.0098 85.7079 74.6484 86.4989C74.2871 87.285 73.7695 87.8905 73.0957 88.3153C72.4268 88.7352 71.6553 88.9452 70.7812 88.9452C69.917 88.9452 69.1455 88.7352 68.4668 88.3153C67.793 87.8905 67.2705 87.2874 66.8994 86.5062C66.5332 85.7249 66.3477 84.8241 66.3428 83.8036V83.203C66.3428 82.1629 66.5259 81.245 66.8921 80.4491C67.2632 79.6532 67.7832 79.0453 68.4521 78.6253C69.126 78.2005 69.8975 77.9881 70.7666 77.9881C71.6357 77.9881 72.4048 78.1981 73.0737 78.618C73.7476 79.0331 74.2676 79.6336 74.6338 80.4198C75 81.201 75.1855 82.1117 75.1904 83.1517V83.745ZM73.3374 83.1883C73.3374 82.0067 73.1128 81.1009 72.6636 80.471C72.2192 79.8412 71.5869 79.5262 70.7666 79.5262C69.9658 79.5262 69.3384 79.8412 68.8843 80.471C68.4351 81.096 68.2056 81.9823 68.1958 83.1297V83.745C68.1958 84.9168 68.4229 85.8226 68.877 86.4622C69.3359 87.1019 69.9707 87.4217 70.7812 87.4217C71.6016 87.4217 72.2314 87.1092 72.6709 86.4842C73.1152 85.8592 73.3374 84.9461 73.3374 83.745V83.1883ZM80.9546 84.6898H78.8892V88.7987H77.0361V78.1346H80.7861C82.0166 78.1346 82.9663 78.4105 83.6353 78.9622C84.3042 79.514 84.6387 80.3123 84.6387 81.3573C84.6387 82.0702 84.4653 82.6683 84.1187 83.1517C83.7769 83.6302 83.2983 83.9989 82.6831 84.2577L85.0781 88.7035V88.7987H83.0933L80.9546 84.6898ZM78.8892 83.203H80.7935C81.4185 83.203 81.9067 83.0467 82.2583 82.7342C82.6099 82.4168 82.7856 81.9847 82.7856 81.4378C82.7856 80.8665 82.6221 80.4247 82.2949 80.1122C81.9727 79.7997 81.4893 79.6385 80.8447 79.6288H78.8892V83.203Z" fill="#707072"/>
</g>
<path id="house" d="M28 69V23H27L48 3L68 23" stroke="#F20E0B" stroke-width="3"/>
</g>
</svg>
