<svg width="91" height="82" viewBox="0 0 95 85" fill="none" xmlns="http://www.w3.org/2000/svg">
<path d="M29 81H15.5C7.76801 81 1.5 74.732 1.5 67V55.5C1.5 47.768 7.76801 41.5 15.5 41.5H29C36.732 41.5 43 47.768 43 55.5V67C43 74.732 36.732 81 29 81Z" fill="#FF0617" stroke="#FF0617"/>
<path d="M34 1C23.8333 1 2.7 12 1.5 56L14.5 42C13.7897 32.9206 16.6954 15.1429 34 15.1429V1Z" fill="#FF0617" stroke="#FF0617"/>
<path d="M76.5 81H63C55.268 81 49 74.732 49 67V55.5C49 47.768 55.268 41.5 63 41.5H76.5C84.232 41.5 90.5 47.768 90.5 55.5V67C90.5 74.732 84.232 81 76.5 81Z" fill="#FF0617" stroke="#FF0617"/>
<path d="M81.5 1C71.3333 1 50.2 12 49 56L62 42C61.2897 32.9206 64.1954 15.1429 81.5 15.1429V1Z" fill="#FF0617" stroke="#FF0617"/>
</svg>
