<svg width="10" height="10" viewBox="0 0 13 19" fill="none" xmlns="http://www.w3.org/2000/svg">
<path d="M6.66635 0C3.17421 0 0.333008 2.84121 0.333008 6.33335C0.333008 7.38169 0.595111 8.42112 1.09338 9.34306L6.32001 18.7959C6.38959 18.9219 6.52218 19 6.66635 19C6.81052 19 6.94312 18.9219 7.0127 18.7959L12.2413 9.33995C12.7376 8.42112 12.9997 7.38165 12.9997 6.33331C12.9997 2.84121 10.1585 0 6.66635 0ZM6.66635 9.5C4.92028 9.5 3.4997 8.07942 3.4997 6.33335C3.4997 4.58728 4.92028 3.16669 6.66635 3.16669C8.41242 3.16669 9.83301 4.58728 9.83301 6.33335C9.83301 8.07942 8.41242 9.5 6.66635 9.5Z" fill="white"/>
</svg>
