<?xml version="1.0" standalone="no"?><svg xmlns="http://www.w3.org/2000/svg" viewBox="0 0 1440 320"><path fill="#2b2e4a" fill-opacity="0.2" d="M0,64L7.3,74.7C14.5,85,29,107,44,133.3C58.2,160,73,192,87,192C101.8,192,116,160,131,170.7C145.5,181,160,235,175,218.7C189.1,203,204,117,218,80C232.7,43,247,53,262,53.3C276.4,53,291,43,305,80C320,117,335,203,349,240C363.6,277,378,267,393,234.7C407.3,203,422,149,436,138.7C450.9,128,465,160,480,192C494.5,224,509,256,524,272C538.2,288,553,288,567,266.7C581.8,245,596,203,611,181.3C625.5,160,640,160,655,165.3C669.1,171,684,181,698,160C712.7,139,727,85,742,64C756.4,43,771,53,785,80C800,107,815,149,829,144C843.6,139,858,85,873,101.3C887.3,117,902,203,916,218.7C930.9,235,945,181,960,165.3C974.5,149,989,171,1004,165.3C1018.2,160,1033,128,1047,149.3C1061.8,171,1076,245,1091,256C1105.5,267,1120,213,1135,160C1149.1,107,1164,53,1178,48C1192.7,43,1207,85,1222,122.7C1236.4,160,1251,192,1265,202.7C1280,213,1295,203,1309,181.3C1323.6,160,1338,128,1353,112C1367.3,96,1382,96,1396,128C1410.9,160,1425,224,1433,256L1440,288L1440,320L1432.7,320C1425.5,320,1411,320,1396,320C1381.8,320,1367,320,1353,320C1338.2,320,1324,320,1309,320C1294.5,320,1280,320,1265,320C1250.9,320,1236,320,1222,320C1207.3,320,1193,320,1178,320C1163.6,320,1149,320,1135,320C1120,320,1105,320,1091,320C1076.4,320,1062,320,1047,320C1032.7,320,1018,320,1004,320C989.1,320,975,320,960,320C945.5,320,931,320,916,320C901.8,320,887,320,873,320C858.2,320,844,320,829,320C814.5,320,800,320,785,320C770.9,320,756,320,742,320C727.3,320,713,320,698,320C683.6,320,669,320,655,320C640,320,625,320,611,320C596.4,320,582,320,567,320C552.7,320,538,320,524,320C509.1,320,495,320,480,320C465.5,320,451,320,436,320C421.8,320,407,320,393,320C378.2,320,364,320,349,320C334.5,320,320,320,305,320C290.9,320,276,320,262,320C247.3,320,233,320,218,320C203.6,320,189,320,175,320C160,320,145,320,131,320C116.4,320,102,320,87,320C72.7,320,58,320,44,320C29.1,320,15,320,7,320L0,320Z"></path></svg>